<mxfile host="app.diagrams.net" modified="2024-05-28T06:09:47.627Z" agent="Mozilla/5.0 (X11; Linux x86_64; rv:125.0) Gecko/20100101 Firefox/125.0" etag="r3ISPX6yArZKuuel8j6K" version="24.4.9" type="device">
  <diagram name="Page-1" id="VPrzIBP_xwfoXw6NHjKK">
    <mxGraphModel dx="1784" dy="1062" grid="1" gridSize="10" guides="1" tooltips="1" connect="1" arrows="1" fold="1" page="1" pageScale="1" pageWidth="850" pageHeight="1100" math="0" shadow="0">
      <root>
        <mxCell id="0" />
        <mxCell id="1" parent="0" />
        <mxCell id="uy4nL8FS2LguV1v71N7g-1" value="" style="group" parent="1" vertex="1" connectable="0">
          <mxGeometry x="50" y="145" width="180" height="60" as="geometry" />
        </mxCell>
        <mxCell id="uy4nL8FS2LguV1v71N7g-2" value="&amp;lt;&amp;lt;artifact&amp;gt;&amp;gt;&lt;br&gt;&lt;br&gt;&lt;b&gt;front.zip&lt;/b&gt;" style="html=1;align=center;verticalAlign=middle;dashed=0;whiteSpace=wrap;" parent="uy4nL8FS2LguV1v71N7g-1" vertex="1">
          <mxGeometry width="180" height="60" as="geometry" />
        </mxCell>
        <mxCell id="uy4nL8FS2LguV1v71N7g-3" value="" style="shape=note2;size=9;childLayout=stackLayout;horizontalStack=0;resizeParent=1;resizeParentMax=0;resizeLast=0;collapsible=0;marginBottom=0;html=1;container=1;" parent="uy4nL8FS2LguV1v71N7g-1" vertex="1">
          <mxGeometry x="150" y="10" width="20" height="30" as="geometry" />
        </mxCell>
        <mxCell id="uy4nL8FS2LguV1v71N7g-4" value="" style="group" parent="1" vertex="1" connectable="0">
          <mxGeometry x="290" y="640" width="180" height="60" as="geometry" />
        </mxCell>
        <mxCell id="uy4nL8FS2LguV1v71N7g-5" value="&amp;lt;&amp;lt;artifact&amp;gt;&amp;gt;&lt;br&gt;&lt;br&gt;&lt;b&gt;db.sql&lt;/b&gt;" style="html=1;align=center;verticalAlign=middle;dashed=0;whiteSpace=wrap;" parent="uy4nL8FS2LguV1v71N7g-4" vertex="1">
          <mxGeometry width="180" height="60" as="geometry" />
        </mxCell>
        <mxCell id="uy4nL8FS2LguV1v71N7g-6" value="" style="shape=note2;size=9;childLayout=stackLayout;horizontalStack=0;resizeParent=1;resizeParentMax=0;resizeLast=0;collapsible=0;marginBottom=0;html=1;container=1;" parent="uy4nL8FS2LguV1v71N7g-4" vertex="1">
          <mxGeometry x="150" y="10" width="20" height="30" as="geometry" />
        </mxCell>
        <mxCell id="uy4nL8FS2LguV1v71N7g-7" value="" style="group" parent="1" vertex="1" connectable="0">
          <mxGeometry x="410" y="230" width="180" height="60" as="geometry" />
        </mxCell>
        <mxCell id="uy4nL8FS2LguV1v71N7g-8" value="&amp;lt;&amp;lt;artifact&amp;gt;&amp;gt;&lt;br&gt;&lt;br&gt;&lt;b&gt;PSI_Project.dll&lt;/b&gt;" style="html=1;align=center;verticalAlign=middle;dashed=0;whiteSpace=wrap;" parent="uy4nL8FS2LguV1v71N7g-7" vertex="1">
          <mxGeometry width="180" height="60" as="geometry" />
        </mxCell>
        <mxCell id="uy4nL8FS2LguV1v71N7g-9" value="" style="shape=note2;size=9;childLayout=stackLayout;horizontalStack=0;resizeParent=1;resizeParentMax=0;resizeLast=0;collapsible=0;marginBottom=0;html=1;container=1;" parent="uy4nL8FS2LguV1v71N7g-7" vertex="1">
          <mxGeometry x="150" y="10" width="20" height="30" as="geometry" />
        </mxCell>
        <mxCell id="uy4nL8FS2LguV1v71N7g-10" value="" style="endArrow=none;startArrow=open;endFill=0;startFill=0;endSize=8;html=1;verticalAlign=bottom;dashed=1;labelBackgroundColor=none;dashPattern=10 10;rounded=0;edgeStyle=orthogonalEdgeStyle;exitX=0.5;exitY=0;exitDx=0;exitDy=0;" parent="1" source="uy4nL8FS2LguV1v71N7g-15" target="uy4nL8FS2LguV1v71N7g-2" edge="1">
          <mxGeometry width="160" relative="1" as="geometry">
            <mxPoint x="130" y="345" as="sourcePoint" />
            <mxPoint x="590" y="225" as="targetPoint" />
          </mxGeometry>
        </mxCell>
        <mxCell id="uy4nL8FS2LguV1v71N7g-11" value="" style="endArrow=none;startArrow=open;endFill=0;startFill=0;endSize=8;html=1;verticalAlign=bottom;dashed=1;labelBackgroundColor=none;dashPattern=10 10;rounded=0;edgeStyle=orthogonalEdgeStyle;exitX=0.5;exitY=0;exitDx=0;exitDy=0;" parent="1" source="uy4nL8FS2LguV1v71N7g-31" target="uy4nL8FS2LguV1v71N7g-5" edge="1">
          <mxGeometry width="160" relative="1" as="geometry">
            <mxPoint x="980" y="370" as="sourcePoint" />
            <mxPoint x="790" y="140" as="targetPoint" />
          </mxGeometry>
        </mxCell>
        <mxCell id="uy4nL8FS2LguV1v71N7g-15" value="&lt;b&gt;React Web Page Server&lt;/b&gt;" style="html=1;dropTarget=0;" parent="1" vertex="1">
          <mxGeometry x="55" y="280" width="170" height="70" as="geometry" />
        </mxCell>
        <mxCell id="uy4nL8FS2LguV1v71N7g-16" value="" style="shape=module;jettyWidth=8;jettyHeight=4;" parent="uy4nL8FS2LguV1v71N7g-15" vertex="1">
          <mxGeometry x="1" width="20" height="20" relative="1" as="geometry">
            <mxPoint x="-27" y="7" as="offset" />
          </mxGeometry>
        </mxCell>
        <mxCell id="nhdxQKVqqA44LSBXfSNr-405" style="edgeStyle=orthogonalEdgeStyle;rounded=0;orthogonalLoop=1;jettySize=auto;html=1;entryX=0;entryY=0.5;entryDx=0;entryDy=0;dashed=1;dashPattern=8 8;endArrow=open;endFill=0;" parent="1" source="uy4nL8FS2LguV1v71N7g-17" target="uy4nL8FS2LguV1v71N7g-8" edge="1">
          <mxGeometry relative="1" as="geometry" />
        </mxCell>
        <mxCell id="nhdxQKVqqA44LSBXfSNr-410" style="edgeStyle=orthogonalEdgeStyle;rounded=0;orthogonalLoop=1;jettySize=auto;html=1;entryX=0;entryY=0.5;entryDx=0;entryDy=0;dashed=1;dashPattern=8 8;endArrow=open;endFill=0;" parent="1" edge="1">
          <mxGeometry relative="1" as="geometry">
            <mxPoint x="310" y="530" as="sourcePoint" />
            <mxPoint x="630" y="530" as="targetPoint" />
          </mxGeometry>
        </mxCell>
        <mxCell id="uy4nL8FS2LguV1v71N7g-17" value="&lt;b&gt;CRUD Handler&lt;br&gt;&lt;/b&gt;" style="html=1;dropTarget=0;" parent="1" vertex="1">
          <mxGeometry x="140" y="480" width="170" height="70" as="geometry" />
        </mxCell>
        <mxCell id="uy4nL8FS2LguV1v71N7g-18" value="" style="shape=module;jettyWidth=8;jettyHeight=4;" parent="uy4nL8FS2LguV1v71N7g-17" vertex="1">
          <mxGeometry x="1" width="20" height="20" relative="1" as="geometry">
            <mxPoint x="-27" y="7" as="offset" />
          </mxGeometry>
        </mxCell>
        <mxCell id="nhdxQKVqqA44LSBXfSNr-407" style="edgeStyle=orthogonalEdgeStyle;rounded=0;orthogonalLoop=1;jettySize=auto;html=1;entryX=0.5;entryY=1;entryDx=0;entryDy=0;dashed=1;dashPattern=8 8;endArrow=open;endFill=0;" parent="1" source="uy4nL8FS2LguV1v71N7g-21" target="uy4nL8FS2LguV1v71N7g-8" edge="1">
          <mxGeometry relative="1" as="geometry" />
        </mxCell>
        <mxCell id="nhdxQKVqqA44LSBXfSNr-408" style="edgeStyle=orthogonalEdgeStyle;rounded=0;orthogonalLoop=1;jettySize=auto;html=1;entryX=0;entryY=0.5;entryDx=0;entryDy=0;dashed=1;dashPattern=8 8;endArrow=open;endFill=0;" parent="1" source="uy4nL8FS2LguV1v71N7g-21" target="uy4nL8FS2LguV1v71N7g-25" edge="1">
          <mxGeometry relative="1" as="geometry" />
        </mxCell>
        <mxCell id="nhdxQKVqqA44LSBXfSNr-417" style="edgeStyle=orthogonalEdgeStyle;rounded=0;orthogonalLoop=1;jettySize=auto;html=1;entryX=0.5;entryY=0;entryDx=0;entryDy=0;dashed=1;dashPattern=8 8;endArrow=open;endFill=0;" parent="1" source="uy4nL8FS2LguV1v71N7g-21" target="uy4nL8FS2LguV1v71N7g-17" edge="1">
          <mxGeometry relative="1" as="geometry" />
        </mxCell>
        <mxCell id="uy4nL8FS2LguV1v71N7g-21" value="&lt;b&gt;Authorization Service&lt;/b&gt;" style="html=1;dropTarget=0;" parent="1" vertex="1">
          <mxGeometry x="415" y="370" width="170" height="70" as="geometry" />
        </mxCell>
        <mxCell id="uy4nL8FS2LguV1v71N7g-22" value="" style="shape=module;jettyWidth=8;jettyHeight=4;" parent="uy4nL8FS2LguV1v71N7g-21" vertex="1">
          <mxGeometry x="1" width="20" height="20" relative="1" as="geometry">
            <mxPoint x="-27" y="7" as="offset" />
          </mxGeometry>
        </mxCell>
        <mxCell id="nhdxQKVqqA44LSBXfSNr-409" style="edgeStyle=orthogonalEdgeStyle;rounded=0;orthogonalLoop=1;jettySize=auto;html=1;entryX=1;entryY=0.5;entryDx=0;entryDy=0;dashed=1;dashPattern=8 8;endArrow=open;endFill=0;" parent="1" edge="1">
          <mxGeometry relative="1" as="geometry">
            <mxPoint x="630" y="500" as="sourcePoint" />
            <mxPoint x="310" y="500" as="targetPoint" />
          </mxGeometry>
        </mxCell>
        <mxCell id="nhdxQKVqqA44LSBXfSNr-416" style="edgeStyle=orthogonalEdgeStyle;rounded=0;orthogonalLoop=1;jettySize=auto;html=1;entryX=1;entryY=0.75;entryDx=0;entryDy=0;exitX=0.5;exitY=0;exitDx=0;exitDy=0;dashed=1;dashPattern=8 8;endArrow=open;endFill=0;" parent="1" source="uy4nL8FS2LguV1v71N7g-25" target="uy4nL8FS2LguV1v71N7g-8" edge="1">
          <mxGeometry relative="1" as="geometry" />
        </mxCell>
        <mxCell id="uy4nL8FS2LguV1v71N7g-25" value="&lt;b&gt;Quiz Game Session&lt;br&gt;Handler&lt;/b&gt;" style="html=1;dropTarget=0;" parent="1" vertex="1">
          <mxGeometry x="630" y="480" width="170" height="70" as="geometry" />
        </mxCell>
        <mxCell id="uy4nL8FS2LguV1v71N7g-26" value="" style="shape=module;jettyWidth=8;jettyHeight=4;" parent="uy4nL8FS2LguV1v71N7g-25" vertex="1">
          <mxGeometry x="1" width="20" height="20" relative="1" as="geometry">
            <mxPoint x="-27" y="7" as="offset" />
          </mxGeometry>
        </mxCell>
        <mxCell id="nhdxQKVqqA44LSBXfSNr-414" style="edgeStyle=orthogonalEdgeStyle;rounded=0;orthogonalLoop=1;jettySize=auto;html=1;entryX=0.5;entryY=1;entryDx=0;entryDy=0;dashed=1;dashPattern=8 8;endArrow=open;endFill=0;" parent="1" source="uy4nL8FS2LguV1v71N7g-27" target="uy4nL8FS2LguV1v71N7g-5" edge="1">
          <mxGeometry relative="1" as="geometry" />
        </mxCell>
        <mxCell id="uy4nL8FS2LguV1v71N7g-27" value="&lt;b&gt;Image Storage&lt;br&gt;&lt;/b&gt;" style="html=1;dropTarget=0;" parent="1" vertex="1">
          <mxGeometry x="640" y="760" width="170" height="70" as="geometry" />
        </mxCell>
        <mxCell id="uy4nL8FS2LguV1v71N7g-28" value="" style="shape=module;jettyWidth=8;jettyHeight=4;" parent="uy4nL8FS2LguV1v71N7g-27" vertex="1">
          <mxGeometry x="1" width="20" height="20" relative="1" as="geometry">
            <mxPoint x="-27" y="7" as="offset" />
          </mxGeometry>
        </mxCell>
        <mxCell id="uy4nL8FS2LguV1v71N7g-31" value="&lt;b&gt;Data Catalog&lt;br&gt;&lt;/b&gt;" style="html=1;dropTarget=0;" parent="1" vertex="1">
          <mxGeometry x="200" y="810" width="170" height="70" as="geometry" />
        </mxCell>
        <mxCell id="uy4nL8FS2LguV1v71N7g-32" value="" style="shape=module;jettyWidth=8;jettyHeight=4;" parent="uy4nL8FS2LguV1v71N7g-31" vertex="1">
          <mxGeometry x="1" width="20" height="20" relative="1" as="geometry">
            <mxPoint x="-27" y="7" as="offset" />
          </mxGeometry>
        </mxCell>
        <mxCell id="nhdxQKVqqA44LSBXfSNr-413" style="edgeStyle=orthogonalEdgeStyle;rounded=0;orthogonalLoop=1;jettySize=auto;html=1;entryX=0.5;entryY=0;entryDx=0;entryDy=0;dashed=1;dashPattern=8 8;endArrow=open;endFill=0;" parent="1" source="nhdxQKVqqA44LSBXfSNr-411" target="uy4nL8FS2LguV1v71N7g-27" edge="1">
          <mxGeometry relative="1" as="geometry" />
        </mxCell>
        <mxCell id="nhdxQKVqqA44LSBXfSNr-411" value="&lt;b&gt;Image Storage&lt;br&gt;&lt;/b&gt;" style="html=1;dropTarget=0;" parent="1" vertex="1">
          <mxGeometry x="640" y="600" width="170" height="70" as="geometry" />
        </mxCell>
        <mxCell id="nhdxQKVqqA44LSBXfSNr-412" value="" style="shape=module;jettyWidth=8;jettyHeight=4;" parent="nhdxQKVqqA44LSBXfSNr-411" vertex="1">
          <mxGeometry x="1" width="20" height="20" relative="1" as="geometry">
            <mxPoint x="-27" y="7" as="offset" />
          </mxGeometry>
        </mxCell>
        <mxCell id="nhdxQKVqqA44LSBXfSNr-415" style="edgeStyle=orthogonalEdgeStyle;rounded=0;orthogonalLoop=1;jettySize=auto;html=1;entryX=0.5;entryY=1;entryDx=0;entryDy=0;dashed=1;dashPattern=8 8;endArrow=open;endFill=0;" parent="1" source="uy4nL8FS2LguV1v71N7g-5" target="uy4nL8FS2LguV1v71N7g-17" edge="1">
          <mxGeometry relative="1" as="geometry" />
        </mxCell>
      </root>
    </mxGraphModel>
  </diagram>
</mxfile>
